# xmcd
#
# Track frame offsets:
#	150
#	15506
#	31252
#	47425
#	65406
#	78193
#	101695
#	114455
#	128912
#	142885
#	155585
#	166534
#	180434
#	194751
#	221650
#	242243
#	255268
#	270148
#
# Disc length: 3782
#
# Revision: 1
# Processed by: cddbd v1.5.1PL0 Copyright (c) Steve Scherf et al.
# Submitted via: CDex 1.51
# Normalized: r0:DSETVAR1,TDELIM( - )
#
DISCID=e10ec412
DTITLE=Various Artist - Swingtime (2)
DYEAR=2001
DGENRE=Jazz
TTITLE0=Glenn Miller - Moonlight Serenade
TTITLE1=Lionel Hampton - Jeepers Creepers
TTITLE2=Buddy Rich - I ll never be the same
TTITLE3=Sonny Stitt - Whats new
TTITLE4=Sidney Bechet - Stompy Jones
TTITLE5=Dexter Gordon - I should care
TTITLE6=Coleman Hawkins - Imagination
TTITLE7=Andrew Sisters - Pennsylvania 6-5000
TTITLE8=Duke Ellington - Charlie the Chulo
TTITLE9=Django Reinhard - Tears
TTITLE10=Gene Krupa - Tiger Rag
TTITLE11=Count Basie - Jumpin at the Woodside
TTITLE12=Benny Goodman - Swingtime in the Rockies
TTITLE13=Charles Mingus - Farewell Farewell
TTITLE14=Stephane Grapelli - Anything goes
TTITLE15=Lionel Hampton - Youre my Ideal
TTITLE16=Glenn Miller - Indian Summer
TTITLE17=Sidney Bechet - 12th Street Rag
EXTD=YEAR: 2001
EXTT0=
EXTT1=
EXTT2=
EXTT3=
EXTT4=
EXTT5=
EXTT6=
EXTT7=
EXTT8=
EXTT9=
EXTT10=
EXTT11=
EXTT12=
EXTT13=
EXTT14=
EXTT15=
EXTT16=
EXTT17=
PLAYORDER=
